<?xml version="1.0" standalone="no"?>
<!DOCTYPE svg PUBLIC "-//W3C//DTD SVG 20010904//EN"
 "http://www.w3.org/TR/2001/REC-SVG-20010904/DTD/svg10.dtd">
<svg version="1.0" xmlns="http://www.w3.org/2000/svg"
 width="1024.000000pt" height="1024.000000pt" viewBox="0 0 1024.000000 1024.000000"
 preserveAspectRatio="xMidYMid meet">

<g transform="translate(0.000000,1024.000000) scale(0.100000,-0.100000)"
fill="#000000" stroke="none">
<path d="M4865 8579 c-315 -15 -667 -48 -965 -90 -253 -35 -432 -68 -940 -169
-272 -55 -749 -145 -1060 -200 -892 -159 -1169 -210 -1263 -230 -176 -38 -249
-91 -465 -335 -64 -71 -127 -142 -141 -157 l-25 -28 5112 0 5113 0 -88 103
c-49 56 -109 130 -135 164 -107 138 -242 224 -413 263 -50 11 -202 40 -340 65
-137 25 -515 97 -840 160 -324 63 -729 139 -900 170 -170 31 -431 78 -580 106
-665 124 -883 158 -1154 179 -154 11 -665 11 -916 -1z"/>
<path d="M212 6910 c-79 -18 -88 -61 -47 -232 13 -57 40 -213 60 -348 54 -379
78 -436 200 -478 47 -16 327 -17 4673 -20 l4623 -2 99 51 c55 28 110 63 123
78 27 33 58 181 112 531 57 377 60 401 46 409 -7 5 -93 11 -191 15 -239 9
-9656 5 -9698 -4z"/>
<path d="M580 5457 c0 -52 29 -359 65 -683 35 -324 76 -701 90 -839 14 -137
31 -267 37 -288 15 -51 66 -94 120 -102 24 -3 1942 -4 4263 -3 l4220 3 42 24
c86 50 107 104 133 346 45 424 140 1525 140 1625 0 7 -1560 10 -4555 10
l-4555 0 0 -93z m4653 -314 c285 -386 402 -669 358 -872 -58 -272 -338 -445
-606 -375 -79 20 -137 55 -211 126 -107 103 -163 248 -149 388 19 186 180 500
400 778 90 114 90 114 208 -45z"/>
<path d="M4789 4473 c-6 -16 -14 -58 -16 -94 -8 -96 16 -160 83 -226 68 -66
137 -93 237 -93 110 0 132 29 35 44 -97 16 -218 108 -264 203 -18 36 -28 76
-32 123 -5 76 -23 93 -43 43z"/>
<path d="M960 3227 c0 -96 11 -193 54 -477 14 -91 32 -243 40 -338 18 -201 32
-245 95 -290 51 -37 95 -47 286 -67 83 -9 339 -39 570 -66 1348 -160 1644
-181 2670 -195 461 -6 1154 4 1710 26 844 33 1083 57 2148 210 494 72 553 82
598 106 59 33 59 34 88 259 24 183 101 877 101 906 0 19 -54 19 -4180 19
l-4180 0 0 -93z"/>
</g>
</svg>
